PathFileType	4	(X/Y/Z)	C:\Users\WrightLab\Desktop\Jo\P2_Trial24.trc
DataRate	CameraRate	NumFrames	NumMarkers	Units	OrigDataRate	OrigDataStartFrame	OrigNumFrames
100.00	100.00	       38	19	mm	100.00	75	       597
Frame#	Time	Headset_Front			Headset_Back			Headset_Left			Headset_Right			Left_Shoulder			Right_Shoulder			Sternum			C7			Left Elbow			Right Elbow			Left Wrist			Right Wrist			Left ASIS			Right ASIS			S2			Left Knee			Right Knee			Left Ankle			Right Ankle			
		X1	Y1	Z1	X2	Y2	Z2	X3	Y3	Z3	X4	Y4	Z4	X5	Y5	Z5	X6	Y6	Z6	X7	Y7	Z7	X8	Y8	Z8	X9	Y9	Z9	X10	Y10	Z10	X11	Y11	Z11	X12	Y12	Z12	X13	Y13	Z13	X14	Y14	Z14	X15	Y15	Z15	X16	Y16	Z16	X17	Y17	Z17	X18	Y18	Z18	X19	Y19	Z19	

75	0.740																									45.19404	1054.81006	-1523.58838							-539.48309	856.13770	-1413.62122										-44.48416	416.45377	-1482.20422										
76	0.750																									45.60417	1055.52954	-1524.80383							-539.36481	856.06079	-1414.18042										-44.40371	416.12338	-1482.85034										
77	0.760																									45.50744	1056.30371	-1523.35168							-538.60132	855.89948	-1415.14502										-44.40371	416.12338	-1482.85034										
78	0.770																									45.55700	1056.50452	-1522.84058							-538.38507	856.29407	-1416.56384										-43.67880	416.30148	-1483.99170										
79	0.780																									46.20210	1056.93921	-1523.54944							-538.35651	856.26831	-1417.14709										-43.62393	416.14563	-1484.27161										
80	0.790																									46.37016	1057.01074	-1522.73535							-538.44464	856.64606	-1418.27954										-43.64426	415.91879	-1484.82861										
81	0.800																									46.81196	1056.82275	-1522.02075							-538.53644	856.57159	-1418.81152										-43.68253	415.84573	-1485.05530										
82	0.810																									47.17884	1056.31812	-1521.41687							-538.58655	857.47552	-1421.12048										-43.70242	415.54608	-1485.78088										
83	0.820																									48.15862	1056.36804	-1521.63440							-538.81567	857.37030	-1421.58936										-43.18555	414.52985	-1485.45117										
84	0.830																									49.03117	1055.72876	-1522.24414							-539.48633	857.46631	-1422.11975										-43.06226	414.24405	-1485.93066										
85	0.840																									49.29328	1055.72998	-1521.13025							-540.49323	858.56287	-1424.32324										-42.92924	413.80115	-1486.76099										
86	0.850																									49.50869	1055.84583	-1519.78528							-541.48120	857.00830	-1422.22253										-42.92924	413.80115	-1486.76099										
87	0.860																									49.33740	1055.20264	-1517.58984							-543.90363	853.50769	-1431.25610										-42.77762	413.51575	-1487.19861										
88	0.870																									50.64452	1054.47717	-1517.67554							-543.68823	856.52582	-1422.35071										-41.49612	413.96536	-1488.48706										
89	0.880																									50.18113	1054.48071	-1514.60657							-545.10809	857.60522	-1424.50208										-40.26782	414.14749	-1490.01257										
90	0.890																									50.51456	1054.45642	-1513.27832							-549.43500	854.95654	-1431.14917										-40.26782	414.14749	-1490.01257										
91	0.900																									50.11822	1054.53918	-1509.92102							-550.85516	854.54706	-1434.78540										-40.24530	414.04730	-1490.21191										
92	0.910																									49.78667	1054.58008	-1507.32947							-552.38684	854.27411	-1439.01868										-40.50923	414.50143	-1490.77759										
93	0.920																									49.75323	1054.42126	-1506.30762							-556.66675	855.61169	-1436.40430										-40.08507	415.02124	-1491.73267										
94	0.930																									49.21801	1054.70557	-1504.98193							-558.51788	860.39783	-1426.02808										-40.27645	414.97589	-1492.12366										
95	0.940																									47.77859	1054.78357	-1501.28516							-562.13721	860.84235	-1425.44592										-40.40674	414.92996	-1492.42505										
96	0.950																									45.87512	1055.75354	-1497.24084							-565.44598	861.78192	-1427.06836										-40.89359	415.73294	-1493.21130										
97	0.960																									45.14894	1056.03015	-1496.52844							-569.98969	859.19818	-1435.48669										-41.34779	415.78723	-1493.76306										
98	0.970																									44.11848	1056.24622	-1495.19421							-572.77490	862.95856	-1428.78076										-42.46253	415.54047	-1494.23865										
99	0.980																									41.95031	1056.54858	-1491.24634							-577.41284	860.70502	-1442.49268										-42.68891	415.41150	-1494.87720										
100	0.990																									40.84049	1056.67590	-1490.43726							-581.58063	865.01154	-1431.73914										-43.22816	415.24619	-1496.06970										
101	1.000																									38.50799	1057.12598	-1486.66528							-585.09991	860.28296	-1448.28564										-43.77880	415.18677	-1497.03589										
102	1.010																									36.60433	1057.64417	-1483.45886							-589.19318	866.00983	-1435.51453										-44.72126	414.57773	-1496.65198										
103	1.020																									35.28028	1058.10339	-1483.07483							-593.66254	866.83026	-1437.67261										-47.59992	414.06317	-1495.85010										
104	1.030																									32.44071	1059.15405	-1478.21362							-597.60486	866.95319	-1439.44360										-48.63571	413.86667	-1495.75879										
105	1.040																									31.13257	1059.62781	-1477.21301							-602.06262	867.07532	-1440.71252										-50.13037	413.71063	-1496.76440										
106	1.050																									29.00700	1060.26343	-1474.36511							-605.59113	867.08801	-1443.04504										-51.12793	413.08255	-1495.92969										
107	1.060																									26.92215	1061.23926	-1471.34229							-609.93427	867.10797	-1444.47974										-52.62282	413.75092	-1496.71326										
108	1.070																									25.47411	1061.24426	-1469.20203							-614.56970	867.16455	-1446.10583										-54.46923	414.13705	-1495.87036										
109	1.080																									23.89798	1062.12207	-1464.93530							-618.02313	866.51471	-1447.15161										-56.37293	412.99664	-1494.55872										
110	1.090																									22.79196	1062.19849	-1461.60693							-622.76947	866.86450	-1449.47131										-57.00155	413.26740	-1494.89319										
111	1.100																									21.54556	1063.00024	-1457.79504							-625.84839	865.54346	-1449.94214										-57.80793	413.15170	-1494.06885										
112	1.110																									18.99470	1064.14551	-1451.97131							-630.50635	865.94556	-1452.09131										-60.32441	412.85547	-1493.36243										
